<svg width="484" height="39" viewBox="0 0 484 39" fill="none" xmlns="http://www.w3.org/2000/svg">
<path fill-rule="evenodd" clip-rule="evenodd" d="M216.986 17.4751C217.255 17.7191 217.255 18.1149 216.986 18.3589L211.486 23.3589C211.218 23.603 210.782 23.603 210.514 23.3589L205.014 18.3589C204.745 18.1149 204.745 17.7191 205.014 17.475C205.282 17.231 205.718 17.231 205.986 17.475L211 22.0331L216.014 17.4751C216.282 17.231 216.718 17.231 216.986 17.4751Z" fill="#D6CB89"/>
<rect x="1" y="1" width="235" height="37" rx="18.5" stroke="#D6CB89" stroke-width="2"/>
<path d="M17.2637 12.9004V12.5977C17.3743 12.5716 17.4622 12.5553 17.5273 12.5488L18.4453 12.5C19.207 12.4349 20.0599 12.3828 21.0039 12.3438C21.3815 12.3307 21.9772 12.3242 22.791 12.3242C23.8978 12.3242 24.7083 12.4056 25.2227 12.5684C25.9714 12.8092 26.528 13.1738 26.8926 13.6621C27.2637 14.1439 27.4492 14.681 27.4492 15.2734C27.4492 16.237 26.7624 17.0475 25.3887 17.7051L25.3398 17.7832C26.043 17.972 26.6191 18.2357 27.0684 18.5742C27.5176 18.9128 27.8626 19.3262 28.1035 19.8145C28.2793 20.1725 28.3672 20.6413 28.3672 21.2207C28.3672 22.1908 27.9245 23.0566 27.0391 23.8184C26.1602 24.5736 24.946 24.9512 23.3965 24.9512H21.9414L20.4668 25C19.1647 25.013 18.403 25.0195 18.1816 25.0195C17.9538 25.0195 17.7292 25.0098 17.5078 24.9902V24.8828C17.5078 24.8047 17.5241 24.7493 17.5566 24.7168C17.5957 24.6777 17.6706 24.6452 17.7812 24.6191C18.5951 24.4499 19.054 24.3359 19.1582 24.2773C19.2689 24.2122 19.3438 24.1113 19.3828 23.9746C19.4609 23.7142 19.5 23.0436 19.5 21.9629C19.5 21.8652 19.4967 21.7415 19.4902 21.5918C19.4772 21.1556 19.4707 20.9049 19.4707 20.8398V19.8242C19.4707 18.1055 19.4512 16.6048 19.4121 15.3223L19.4023 13.3594L19.3926 13.1152C18.8392 13.0371 18.3509 12.9883 17.9277 12.9688C17.6543 12.9622 17.4329 12.9395 17.2637 12.9004ZM21.1406 17.8418C21.4661 17.9069 21.8079 17.9395 22.166 17.9395C23.5723 17.9395 24.526 17.6302 25.0273 17.0117C25.5286 16.3932 25.7793 15.778 25.7793 15.166C25.7793 14.8926 25.7337 14.6159 25.6426 14.3359C25.5579 14.0495 25.4017 13.7923 25.1738 13.5645C24.9525 13.3366 24.6758 13.1673 24.3438 13.0566C23.7773 12.8678 23.1979 12.7734 22.6055 12.7734C22.0521 12.7734 21.5378 12.8353 21.0625 12.959C21.056 13.0957 21.0527 13.1966 21.0527 13.2617C21.0527 13.3268 21.0592 13.5124 21.0723 13.8184C21.0788 14.0137 21.082 14.209 21.082 14.4043L21.0527 15.5859L21.0625 16.2891L21.1309 17.666L21.1406 17.8418ZM23.4355 24.4824C24.0801 24.4368 24.6204 24.3001 25.0566 24.0723C25.2585 23.9681 25.4961 23.7826 25.7695 23.5156C26.0495 23.2422 26.2643 22.9167 26.4141 22.5391C26.5703 22.1615 26.6484 21.7969 26.6484 21.4453C26.6484 21.1784 26.5931 20.8496 26.4824 20.459C26.3783 20.0684 26.196 19.7266 25.9355 19.4336C25.6816 19.1341 25.3008 18.89 24.793 18.7012C24.2852 18.5059 23.7253 18.4082 23.1133 18.4082C21.9284 18.4082 21.2643 18.431 21.1211 18.4766C21.1146 18.6263 21.1113 18.737 21.1113 18.8086L21.1211 19.1699L21.1113 19.9023V20.7324C21.1309 22.2624 21.1667 23.1673 21.2188 23.4473C21.2708 23.7272 21.4466 23.9681 21.7461 24.1699C22.0521 24.3717 22.6152 24.4759 23.4355 24.4824ZM30.0176 21.0742C30.0176 20.6315 30.1087 20.1595 30.291 19.6582C30.4798 19.1504 30.763 18.6979 31.1406 18.3008C31.5182 17.8971 31.9186 17.5977 32.3418 17.4023C32.9342 17.1289 33.6569 16.9922 34.5098 16.9922C35.7272 16.9922 36.7428 17.4089 37.5566 18.2422C38.377 19.0755 38.7871 20.0781 38.7871 21.25C38.7871 22.2917 38.3574 23.2227 37.498 24.043C36.6452 24.8568 35.5645 25.2637 34.2559 25.2637C33.4486 25.2637 32.6868 25.0521 31.9707 24.6289C31.4368 24.3099 30.9779 23.8379 30.5938 23.2129C30.2096 22.5879 30.0176 21.875 30.0176 21.0742ZM34.334 24.8828C34.8288 24.8828 35.304 24.7493 35.7598 24.4824C36.222 24.2155 36.5898 23.7891 36.8633 23.2031C37.1367 22.6107 37.2734 21.9271 37.2734 21.1523C37.2734 20.6445 37.166 20.0553 36.9512 19.3848C36.7428 18.7142 36.4173 18.2129 35.9746 17.8809C35.5384 17.5423 35.0241 17.373 34.4316 17.373C34.002 17.373 33.5625 17.474 33.1133 17.6758C32.6706 17.8776 32.293 18.265 31.9805 18.8379C31.6745 19.4108 31.5215 20.2246 31.5215 21.2793C31.5215 22.4642 31.7884 23.3626 32.3223 23.9746C32.8626 24.5801 33.5332 24.8828 34.334 24.8828ZM46.6484 17.9102L46.6582 17.627L46.6484 16.4844L46.6582 14.3262C46.6582 13.7272 46.5931 13.3464 46.4629 13.1836C46.3327 13.0208 45.9518 12.8548 45.3203 12.6855C45.2747 12.6725 45.2031 12.653 45.1055 12.627V12.5195C45.1055 12.4544 45.112 12.3828 45.125 12.3047C46.0104 12.2135 46.7721 12.0605 47.4102 11.8457L47.9082 11.8359C47.9342 12.2786 47.9473 12.7734 47.9473 13.3203L47.9082 17.0801L47.9766 21.3184L47.9473 23.5742C47.9473 24.0365 47.9798 24.2969 48.0449 24.3555C48.1751 24.4857 48.4616 24.554 48.9043 24.5605C48.9954 24.5605 49.1191 24.5671 49.2754 24.5801V24.7559C49.2754 24.8014 49.2721 24.8503 49.2656 24.9023C49.0638 24.9479 48.8555 24.9902 48.6406 25.0293L47.2246 25.3027C47.0163 25.3418 46.8503 25.3613 46.7266 25.3613V24.4238C46.6159 24.4564 46.4434 24.5215 46.209 24.6191C45.1934 25.0488 44.2591 25.2637 43.4062 25.2637C42.8919 25.2637 42.3678 25.0977 41.834 24.7656C41.3001 24.4271 40.89 23.9583 40.6035 23.3594C40.3171 22.7604 40.1738 22.1484 40.1738 21.5234C40.1738 20.9635 40.2682 20.4297 40.457 19.9219C40.6458 19.4076 40.8932 18.9811 41.1992 18.6426C41.3945 18.4212 41.6712 18.2031 42.0293 17.9883C42.3874 17.7669 42.6836 17.627 42.918 17.5684C43.4974 17.4186 43.8848 17.3438 44.0801 17.3438C44.959 17.3438 45.6816 17.474 46.248 17.7344C46.4238 17.819 46.5573 17.8776 46.6484 17.9102ZM46.6582 23.9453C46.6842 23.5091 46.6973 22.6107 46.6973 21.25C46.6973 20.0977 46.6419 19.3717 46.5312 19.0723C46.4271 18.7663 46.1602 18.4798 45.7305 18.2129C45.3008 17.9395 44.819 17.8027 44.2852 17.8027C43.5365 17.8027 42.9017 18.0924 42.3809 18.6719C41.86 19.2513 41.5996 20.1074 41.5996 21.2402C41.5996 22.2363 41.8796 23.0306 42.4395 23.623C43.0059 24.2155 43.709 24.5117 44.5488 24.5117C45.0306 24.5117 45.4701 24.4466 45.8672 24.3164C46.2643 24.1862 46.528 24.0625 46.6582 23.9453ZM49.6367 17.3047C49.7799 17.2917 49.9004 17.2852 49.998 17.2852H50.4668L51.1016 17.2656L51.9316 17.2949L52.6055 17.2754C52.9635 17.2754 53.2858 17.2982 53.5723 17.3438C53.5983 17.4089 53.6113 17.4609 53.6113 17.5L53.6016 17.5781C53.4648 17.6432 53.2533 17.6888 52.9668 17.7148C52.5632 17.7474 52.2734 17.819 52.0977 17.9297L52.0781 18.0371C52.0781 18.1022 52.1042 18.1999 52.1562 18.3301C52.1888 18.4082 52.2311 18.5254 52.2832 18.6816C52.4264 19.1634 52.7357 20.0944 53.2109 21.4746C53.556 22.4707 53.875 23.3268 54.168 24.043C54.3503 23.6523 54.5586 23.1576 54.793 22.5586L55.623 20.2441C55.8053 19.7363 55.9453 19.2285 56.043 18.7207C56.082 18.5189 56.1016 18.3594 56.1016 18.2422C56.1016 18.1445 56.0592 18.0534 55.9746 17.9688C55.89 17.8841 55.7207 17.8125 55.4668 17.7539C55.0046 17.6367 54.7539 17.5651 54.7148 17.5391C54.6758 17.5065 54.653 17.4414 54.6465 17.3438C54.6855 17.3112 54.7311 17.2852 54.7832 17.2656H55.3887L56.043 17.2754L57.0195 17.2656L57.6445 17.2754L57.8008 17.2656C57.8464 17.2656 57.9212 17.2721 58.0254 17.2852C58.0905 17.3177 58.123 17.3698 58.123 17.4414C58.123 17.5065 58.0938 17.5651 58.0352 17.6172L57.8398 17.6465C57.4622 17.6986 57.1725 17.7962 56.9707 17.9395C56.86 18.0176 56.7656 18.1803 56.6875 18.4277C56.6615 18.5189 56.6191 18.6361 56.5605 18.7793C56.528 18.8574 56.4792 18.9876 56.4141 19.1699C56.3555 19.3522 56.2773 19.5671 56.1797 19.8145L56.0625 20.0879L56.0527 20.1367L54.3926 24.5117L53.1816 27.8027C53.1035 27.9655 53.0124 28.1673 52.9082 28.4082C52.6608 28.8704 52.5143 29.1243 52.4688 29.1699C52.2734 29.4108 52.1042 29.5801 51.9609 29.6777L51.4629 29.8926C51.3652 29.9186 51.2611 29.9316 51.1504 29.9316C50.8574 29.9316 50.6426 29.8665 50.5059 29.7363C50.3691 29.6126 50.3008 29.4401 50.3008 29.2188C50.3008 29.0104 50.4017 28.8216 50.6035 28.6523C50.6686 28.6328 50.7337 28.6068 50.7988 28.5742L50.9258 28.5449C51.5052 28.6491 51.8665 28.7012 52.0098 28.7012C52.1465 28.6296 52.2474 28.5449 52.3125 28.4473C52.6315 27.972 52.9049 27.4414 53.1328 26.8555C53.3607 26.2695 53.4746 25.8757 53.4746 25.6738C53.4746 25.4525 53.39 25.1302 53.2207 24.707L52.1367 21.8359C51.987 21.4648 51.541 20.2539 50.7988 18.2031C50.7533 18.0729 50.6947 17.9753 50.623 17.9102L49.959 17.666L49.7539 17.627C49.6432 17.5814 49.5879 17.5163 49.5879 17.4316L49.6367 17.3047ZM63.2109 13.9648L63.6113 12.4902C63.6374 12.2949 63.6732 12.1712 63.7188 12.1191C63.7643 12.0605 63.8164 12.0312 63.875 12.0312C63.9922 12.0312 64.1257 12.1712 64.2754 12.4512C64.3861 12.653 64.4772 12.7832 64.5488 12.8418C64.6204 12.8939 64.7246 12.9297 64.8613 12.9492L64.959 12.9395L65.3789 12.9785L67.6836 13.0078L70.4082 12.998H71.209L72.7227 12.9688C72.7878 12.9688 72.8691 12.9753 72.9668 12.9883C73.4095 13.0273 73.6829 13.0469 73.7871 13.0469C73.8848 13.0469 73.9629 13.0143 74.0215 12.9492C74.041 12.9232 74.1484 12.7018 74.3438 12.2852C74.4284 12.0964 74.5326 12.002 74.6562 12.002C74.7083 12.002 74.7734 12.015 74.8516 12.041C74.8841 12.1712 74.9004 12.2884 74.9004 12.3926L74.8906 12.7832L74.9004 13.6133C74.9004 13.8151 74.8841 14.4661 74.8516 15.5664C74.8516 15.638 74.8385 15.7031 74.8125 15.7617C74.7409 15.8073 74.679 15.8301 74.627 15.8301C74.5749 15.8301 74.5293 15.8073 74.4902 15.7617C74.4512 15.7096 74.4023 15.5566 74.3438 15.3027C74.2135 14.7168 74.0508 14.2969 73.8555 14.043C73.7253 13.8802 73.5365 13.763 73.2891 13.6914C73.0482 13.6198 72.4655 13.584 71.541 13.584C70.7988 13.584 70.2487 13.597 69.8906 13.623C69.8776 13.8835 69.8711 14.1211 69.8711 14.3359L69.9492 20.4004C69.9492 20.6413 69.9362 21.097 69.9102 21.7676L69.9199 23.0664L69.9102 23.7891C69.9102 24.0169 69.9492 24.1797 70.0273 24.2773C70.1055 24.375 70.3171 24.4694 70.6621 24.5605C71.2611 24.7103 71.6615 24.8014 71.8633 24.834C71.987 24.847 72.0879 24.873 72.166 24.9121V25.2051L70.7793 25.166C70.0176 25.1595 69.4447 25.1432 69.0605 25.1172L67.6348 25.1855L66.5898 25.2441C66.2969 25.2441 66.1178 25.2376 66.0527 25.2246L65.916 25.166C65.929 25.0163 65.9583 24.9219 66.0039 24.8828C66.0495 24.8372 66.1699 24.8014 66.3652 24.7754C66.6387 24.7363 66.9609 24.668 67.332 24.5703C67.7031 24.4661 67.9473 24.362 68.0645 24.2578C68.1296 24.1992 68.1751 24.1016 68.2012 23.9648C68.2598 23.6784 68.2891 23.1152 68.2891 22.2754V20.6152L68.25 16.9922L68.2109 16.2109L68.2012 13.6035C67.791 13.5579 67.2669 13.5352 66.6289 13.5352C65.6914 13.5352 65.1217 13.5938 64.9199 13.7109C64.6009 13.8932 64.1257 14.4271 63.4941 15.3125C63.2858 15.6445 63.1035 15.8105 62.9473 15.8105L62.8594 15.791C62.8333 15.752 62.8203 15.7161 62.8203 15.6836C62.8203 15.6055 62.8724 15.3711 62.9766 14.9805C63.1068 14.4792 63.1849 14.1406 63.2109 13.9648ZM73.8945 17.3047C74.0378 17.2917 74.1582 17.2852 74.2559 17.2852H74.7246L75.3594 17.2656L76.1895 17.2949L76.8633 17.2754C77.2214 17.2754 77.5436 17.2982 77.8301 17.3438C77.8561 17.4089 77.8691 17.4609 77.8691 17.5L77.8594 17.5781C77.7227 17.6432 77.5111 17.6888 77.2246 17.7148C76.821 17.7474 76.5312 17.819 76.3555 17.9297L76.3359 18.0371C76.3359 18.1022 76.362 18.1999 76.4141 18.3301C76.4466 18.4082 76.4889 18.5254 76.541 18.6816C76.6842 19.1634 76.9935 20.0944 77.4688 21.4746C77.8138 22.4707 78.1328 23.3268 78.4258 24.043C78.6081 23.6523 78.8164 23.1576 79.0508 22.5586L79.8809 20.2441C80.0632 19.7363 80.2031 19.2285 80.3008 18.7207C80.3398 18.5189 80.3594 18.3594 80.3594 18.2422C80.3594 18.1445 80.3171 18.0534 80.2324 17.9688C80.1478 17.8841 79.9785 17.8125 79.7246 17.7539C79.2624 17.6367 79.0117 17.5651 78.9727 17.5391C78.9336 17.5065 78.9108 17.4414 78.9043 17.3438C78.9434 17.3112 78.9889 17.2852 79.041 17.2656H79.6465L80.3008 17.2754L81.2773 17.2656L81.9023 17.2754L82.0586 17.2656C82.1042 17.2656 82.179 17.2721 82.2832 17.2852C82.3483 17.3177 82.3809 17.3698 82.3809 17.4414C82.3809 17.5065 82.3516 17.5651 82.293 17.6172L82.0977 17.6465C81.7201 17.6986 81.4303 17.7962 81.2285 17.9395C81.1178 18.0176 81.0234 18.1803 80.9453 18.4277C80.9193 18.5189 80.877 18.6361 80.8184 18.7793C80.7858 18.8574 80.737 18.9876 80.6719 19.1699C80.6133 19.3522 80.5352 19.5671 80.4375 19.8145L80.3203 20.0879L80.3105 20.1367L78.6504 24.5117L77.4395 27.8027C77.3613 27.9655 77.2702 28.1673 77.166 28.4082C76.9186 28.8704 76.7721 29.1243 76.7266 29.1699C76.5312 29.4108 76.362 29.5801 76.2188 29.6777L75.7207 29.8926C75.623 29.9186 75.5189 29.9316 75.4082 29.9316C75.1152 29.9316 74.9004 29.8665 74.7637 29.7363C74.627 29.6126 74.5586 29.4401 74.5586 29.2188C74.5586 29.0104 74.6595 28.8216 74.8613 28.6523C74.9264 28.6328 74.9915 28.6068 75.0566 28.5742L75.1836 28.5449C75.763 28.6491 76.1243 28.7012 76.2676 28.7012C76.4043 28.6296 76.5052 28.5449 76.5703 28.4473C76.8893 27.972 77.1628 27.4414 77.3906 26.8555C77.6185 26.2695 77.7324 25.8757 77.7324 25.6738C77.7324 25.4525 77.6478 25.1302 77.4785 24.707L76.3945 21.8359C76.2448 21.4648 75.7988 20.2539 75.0566 18.2031C75.0111 18.0729 74.9525 17.9753 74.8809 17.9102L74.2168 17.666L74.0117 17.627C73.901 17.5814 73.8457 17.5163 73.8457 17.4316L73.8945 17.3047ZM82.3613 30.0977C82.3548 30.026 82.3516 29.9609 82.3516 29.9023C82.3516 29.8568 82.3581 29.8014 82.3711 29.7363L83.3477 29.541C83.5039 29.4629 83.6309 29.3685 83.7285 29.2578C83.7611 29.1406 83.7773 29.0234 83.7773 28.9062C83.7773 27.9036 83.7513 25.9928 83.6992 23.1738L83.6699 19.5996C83.6569 19.0332 83.6211 18.6751 83.5625 18.5254C83.5299 18.4473 83.4811 18.3854 83.416 18.3398C83.2533 18.2161 82.9277 18.112 82.4395 18.0273L82.498 17.7344C83.2012 17.4349 83.6699 17.2038 83.9043 17.041C84.1452 16.8717 84.373 16.6374 84.5879 16.3379L84.7051 16.3086C84.7507 16.3086 84.8158 16.3281 84.9004 16.3672C84.8939 16.7773 84.8906 17.0475 84.8906 17.1777L84.9004 18.252C85.3822 17.8874 85.8835 17.6172 86.4043 17.4414C86.9251 17.2591 87.4655 17.168 88.0254 17.168C89.028 17.168 89.8743 17.5228 90.5645 18.2324C91.2546 18.9355 91.5996 19.8438 91.5996 20.957C91.5996 21.7839 91.4043 22.526 91.0137 23.1836C90.6296 23.8411 90.0957 24.3327 89.4121 24.6582C88.735 24.9837 88.0514 25.1465 87.3613 25.1465C86.7754 25.1465 86.1048 24.987 85.3496 24.668C85.2259 24.6159 85.1152 24.5703 85.0176 24.5312C85.0046 25.0521 84.998 25.5143 84.998 25.918C84.998 27.9297 85.0534 29.056 85.1641 29.2969C85.2227 29.4271 85.4049 29.5052 85.7109 29.5312C86.2318 29.5703 86.5768 29.6452 86.7461 29.7559C86.8438 29.8145 86.9089 29.9316 86.9414 30.1074L85.9746 30.127L85.0957 30.1074L83.6309 30.1172L82.3613 30.0977ZM84.9102 18.9258C84.8971 19.0169 84.8906 19.1016 84.8906 19.1797C84.8906 21.5039 84.9134 22.806 84.959 23.0859C85.0501 23.6003 85.2324 23.9616 85.5059 24.1699C85.929 24.502 86.5345 24.668 87.3223 24.668C88.1361 24.668 88.8229 24.388 89.3828 23.8281C89.9427 23.2617 90.2227 22.5293 90.2227 21.6309C90.2227 20.5501 89.9264 19.694 89.334 19.0625C88.7415 18.431 87.9603 18.1152 86.9902 18.1152C86.5801 18.1152 86.2025 18.1836 85.8574 18.3203C85.5124 18.4505 85.1966 18.6523 84.9102 18.9258ZM100.066 19.8438L96.1504 19.873H95.4082C95.1087 19.873 94.8027 19.8861 94.4902 19.9121C94.4316 20.1074 94.4023 20.2409 94.4023 20.3125L94.4121 20.4102V20.5078L94.4023 20.9863C94.4023 21.3835 94.526 21.8717 94.7734 22.4512C95.0273 23.0241 95.3854 23.4635 95.8477 23.7695C96.3164 24.069 96.8991 24.2285 97.5957 24.248C97.9668 24.2285 98.263 24.1829 98.4844 24.1113C98.7057 24.0397 99.0182 23.8737 99.4219 23.6133L100.125 23.0371L100.184 23.4277C100.184 23.4733 100.18 23.5221 100.174 23.5742C99.8809 23.9453 99.5098 24.2708 99.0605 24.5508C98.6113 24.8307 98.1556 25.0358 97.6934 25.166C97.472 25.2246 97.1074 25.2539 96.5996 25.2539C96.1374 25.2539 95.6816 25.1595 95.2324 24.9707C94.5684 24.6842 94.0443 24.2253 93.6602 23.5938C93.2826 22.9557 93.0938 22.1842 93.0938 21.2793C93.0938 20.9928 93.1458 20.625 93.25 20.1758C93.3607 19.7266 93.556 19.248 93.8359 18.7402C94.0247 18.3952 94.2559 18.112 94.5293 17.8906C94.9199 17.5781 95.2617 17.36 95.5547 17.2363C95.9779 17.0605 96.4694 16.9727 97.0293 16.9727C97.6348 16.9727 98.1296 17.0833 98.5137 17.3047C99.0345 17.5977 99.4219 17.9753 99.6758 18.4375C99.9362 18.8997 100.066 19.3229 100.066 19.707V19.8438ZM94.6172 19.4922H95.0762C95.4082 19.4922 96.3978 19.4401 98.0449 19.3359C98.3053 19.3229 98.4648 19.2969 98.5234 19.2578C98.6406 19.1341 98.6992 19.0234 98.6992 18.9258C98.6992 18.724 98.6341 18.4961 98.5039 18.2422C98.3737 17.9818 98.1719 17.7832 97.8984 17.6465C97.6315 17.5033 97.319 17.4316 96.9609 17.4316C96.2057 17.4316 95.6003 17.7148 95.1445 18.2812C94.793 18.7109 94.6172 19.1146 94.6172 19.4922Z" fill="white"/>
<path fill-rule="evenodd" clip-rule="evenodd" d="M463.986 17.4751C464.255 17.7191 464.255 18.1149 463.986 18.3589L458.486 23.3589C458.218 23.603 457.782 23.603 457.514 23.3589L452.014 18.3589C451.745 18.1149 451.745 17.7191 452.014 17.475C452.282 17.231 452.718 17.231 452.986 17.475L458 22.0331L463.014 17.4751C463.282 17.231 463.718 17.231 463.986 17.4751Z" fill="#D6CB89"/>
<rect x="248" y="1" width="235" height="37" rx="18.5" stroke="#D6CB89" stroke-width="2"/>
<path d="M264.137 24.7754C264.339 24.6387 264.703 24.541 265.23 24.4824C265.641 24.4629 265.885 24.4271 265.963 24.375C266.015 24.3359 266.054 24.2871 266.08 24.2285C266.178 23.9876 266.249 23.3333 266.295 22.2656C266.354 20.8789 266.448 19.0332 266.578 16.7285C266.682 14.9707 266.734 13.8737 266.734 13.4375V13.1836C266.266 13.0859 265.523 12.9818 264.508 12.8711C264.443 12.7734 264.41 12.6986 264.41 12.6465C264.41 12.6139 264.433 12.5553 264.479 12.4707C264.589 12.4316 264.674 12.4121 264.732 12.4121C264.785 12.4121 264.898 12.4251 265.074 12.4512C265.393 12.4967 265.833 12.5195 266.393 12.5195C266.575 12.5195 266.887 12.5065 267.33 12.4805C267.643 12.4609 267.818 12.4512 267.857 12.4512C267.962 12.4512 268.082 12.4674 268.219 12.5C268.284 12.5651 268.333 12.627 268.365 12.6855L268.775 13.6035L271.539 19.7168L272.682 22.2852C273.587 20.4948 274.29 18.903 274.791 17.5098C274.824 17.4056 274.863 17.3112 274.908 17.2266C274.967 17.1159 275.022 16.9922 275.074 16.8555C275.126 16.7188 275.338 16.1979 275.709 15.293C275.859 14.9284 275.979 14.6159 276.07 14.3555C276.441 13.3138 276.66 12.7181 276.725 12.5684C276.848 12.5228 276.956 12.5 277.047 12.5C277.151 12.5 277.285 12.5065 277.447 12.5195C277.812 12.5391 278.404 12.5488 279.225 12.5488C279.732 12.5488 280.149 12.5423 280.475 12.5293C280.488 12.6009 280.494 12.653 280.494 12.6855C280.494 12.7311 280.484 12.793 280.465 12.8711C280.257 12.9818 280.006 13.0436 279.713 13.0566C279.133 13.0892 278.766 13.1348 278.609 13.1934C278.453 13.252 278.352 13.3268 278.307 13.418C278.268 13.5091 278.232 13.8086 278.199 14.3164L278.209 14.7656L278.199 15.2344C278.199 16.2109 278.225 17.8516 278.277 20.1562L278.268 22.0703L278.277 23.3008C278.277 23.7826 278.3 24.069 278.346 24.1602C278.391 24.2448 278.521 24.3262 278.736 24.4043C279.088 24.5215 279.661 24.6419 280.455 24.7656C280.501 24.7982 280.523 24.8405 280.523 24.8926C280.523 24.9512 280.52 25.0163 280.514 25.0879H280.064C279.68 25.0879 279.264 25.0749 278.814 25.0488C278.365 25.0293 278.124 25.0195 278.092 25.0195C276.757 25.0195 275.872 25.0326 275.436 25.0586C275.169 25.0781 274.999 25.0879 274.928 25.0879C274.882 25.0879 274.833 25.0749 274.781 25.0488V24.9219C274.781 24.8633 274.791 24.8014 274.811 24.7363C275.025 24.6452 275.318 24.5833 275.689 24.5508C276.1 24.4401 276.399 24.3229 276.588 24.1992C276.646 23.9518 276.676 23.4473 276.676 22.6855L276.646 20.7129C276.646 20.498 276.656 20.0977 276.676 19.5117C276.702 18.9258 276.715 17.972 276.715 16.6504C276.715 15.6022 276.689 14.8079 276.637 14.2676C276.526 14.4954 276.308 14.9902 275.982 15.752L275.836 16.123L275.816 16.1816L274.371 19.5996L273.854 20.918L273.18 22.5195C272.887 23.2552 272.636 23.9062 272.428 24.4727C272.337 24.7331 272.262 24.9382 272.203 25.0879L271.979 25.0781C271.243 22.9297 270.364 20.7259 269.342 18.4668C268.326 16.2077 267.613 14.7168 267.203 13.9941C267.151 14.2741 267.092 15.0879 267.027 16.4355C266.943 18.0762 266.9 19.8828 266.9 21.8555C266.9 22.474 266.946 23.1706 267.037 23.9453C267.063 24.1667 267.158 24.3327 267.32 24.4434C267.483 24.5475 267.903 24.6061 268.58 24.6191C268.84 24.6191 269.088 24.6387 269.322 24.6777C269.368 24.7754 269.391 24.847 269.391 24.8926C269.391 24.9251 269.374 24.9805 269.342 25.0586L266.305 24.9512C266.083 24.9512 265.738 24.9674 265.27 25C265.009 25.0195 264.635 25.0326 264.146 25.0391L264.137 24.7754ZM288.619 23.6719C288.658 23.7565 288.678 23.8184 288.678 23.8574C288.678 23.9551 288.6 24.1276 288.443 24.375C288.242 24.7005 288.017 24.9382 287.77 25.0879C287.613 25.1855 287.398 25.2344 287.125 25.2344C286.656 25.2344 286.305 25.0911 286.07 24.8047C285.927 24.6354 285.826 24.3327 285.768 23.8965L284.674 24.6582C284.29 24.8796 283.997 25.0195 283.795 25.0781C283.469 25.1628 283.079 25.2051 282.623 25.2051C282.291 25.2051 282.027 25.1074 281.832 24.9121C281.643 24.7103 281.549 24.4531 281.549 24.1406C281.549 23.6914 281.822 23.1543 282.369 22.5293C282.923 21.9043 283.671 21.3932 284.615 20.9961C285.279 20.7161 285.686 20.5371 285.836 20.459C285.849 20.2441 285.855 20.0098 285.855 19.7559C285.855 18.929 285.738 18.3691 285.504 18.0762C285.276 17.7832 284.947 17.6367 284.518 17.6367C284.068 17.6367 283.648 17.8125 283.258 18.1641C283.017 18.3854 282.835 18.8021 282.711 19.4141C282.672 19.5833 282.597 19.7656 282.486 19.9609C282.206 20.1432 281.982 20.2344 281.812 20.2344C281.669 20.2344 281.539 20.1921 281.422 20.1074C281.357 20.0618 281.324 20.0098 281.324 19.9512C281.324 19.7819 281.503 19.401 281.861 18.8086C282.226 18.2096 282.682 17.7637 283.229 17.4707C283.782 17.1712 284.264 17.0215 284.674 17.0215C285.234 17.0215 285.65 17.0736 285.924 17.1777C286.197 17.2754 286.438 17.4512 286.646 17.7051C286.855 17.959 286.982 18.2357 287.027 18.5352C287.053 18.6784 287.066 19.1895 287.066 20.0684L287.037 21.6211L287.047 22.7539C287.047 22.9036 287.044 23.0306 287.037 23.1348C287.031 23.3236 287.027 23.4635 287.027 23.5547C287.027 23.7695 287.089 23.9421 287.213 24.0723C287.337 24.2025 287.483 24.2676 287.652 24.2676C287.9 24.2676 288.111 24.1439 288.287 23.8965L288.404 23.7402C288.437 23.7207 288.508 23.6979 288.619 23.6719ZM285.748 23.3887C285.794 22.5618 285.816 21.9792 285.816 21.6406C285.816 21.4648 285.807 21.2272 285.787 20.9277C285.351 21.084 284.889 21.3216 284.4 21.6406C283.912 21.9596 283.525 22.3275 283.238 22.7441C283.03 23.0436 282.926 23.3268 282.926 23.5938C282.926 23.8477 283.01 24.0592 283.18 24.2285C283.355 24.3978 283.574 24.4824 283.834 24.4824C284.036 24.4824 284.28 24.4108 284.566 24.2676C284.944 24.0788 285.338 23.7858 285.748 23.3887ZM289.332 25L289.312 24.7168C289.365 24.6777 289.413 24.6549 289.459 24.6484C289.505 24.6354 289.667 24.6191 289.947 24.5996C290.234 24.5801 290.413 24.5182 290.484 24.4141C290.556 24.3034 290.592 23.8574 290.592 23.0762L290.611 19.2188L290.592 18.5352C290.592 18.4766 290.598 18.2585 290.611 17.8809C290.624 17.7051 290.631 17.4935 290.631 17.2461L290.592 15.5469L290.602 14.0625C290.602 13.7044 290.549 13.4766 290.445 13.3789C290.348 13.2747 289.993 13.1803 289.381 13.0957V12.9785C289.381 12.9395 289.384 12.8841 289.391 12.8125C289.762 12.7344 290.09 12.6367 290.377 12.5195C290.527 12.4544 290.908 12.2526 291.52 11.9141H291.822C291.816 12.0638 291.812 12.1549 291.812 12.1875V13.0371L291.803 13.457L291.832 14.2285L291.822 15.3906L291.832 17.3242L291.803 19.7266V20.4688C291.803 20.5599 291.806 20.6868 291.812 20.8496L291.92 20.8594C292.141 20.8594 292.366 20.778 292.594 20.6152C293.616 19.8861 294.257 19.3913 294.518 19.1309C294.778 18.8639 294.908 18.6719 294.908 18.5547C294.908 18.4831 294.866 18.3919 294.781 18.2812C294.586 18.1771 294.368 18.1055 294.127 18.0664C294.055 18.0534 293.977 18.0371 293.893 18.0176C293.775 17.985 293.678 17.9622 293.6 17.9492L293.58 17.8516C293.58 17.806 293.596 17.7409 293.629 17.6562C294.658 17.6172 295.553 17.5977 296.314 17.5977C296.744 17.5977 297.203 17.6074 297.691 17.627V17.7539C297.691 17.7995 297.675 17.8581 297.643 17.9297C297.545 17.9492 297.392 17.9785 297.184 18.0176C296.78 18.0827 296.474 18.1738 296.266 18.291C295.764 18.5579 295.247 18.9323 294.713 19.4141C294.394 19.7005 294.117 19.9414 293.883 20.1367L293.531 20.4395C293.557 20.485 293.6 20.5404 293.658 20.6055C293.684 20.6315 293.736 20.6901 293.814 20.7812C293.893 20.8724 294.033 21.0254 294.234 21.2402C294.938 21.9824 295.458 22.5553 295.797 22.959C295.908 23.0892 296.031 23.2324 296.168 23.3887C296.676 23.9551 296.972 24.2708 297.057 24.3359C297.239 24.4531 297.509 24.5443 297.867 24.6094C298.036 24.6419 298.183 24.6712 298.307 24.6973C298.333 24.7754 298.346 24.8372 298.346 24.8828L298.336 24.9805C297.874 24.9414 297.542 24.9219 297.34 24.9219H297.164L294.449 25C294.345 25.013 294.273 25.0195 294.234 25.0195C294.169 25.0195 294.101 25.0065 294.029 24.9805C294.01 24.9284 294 24.8828 294 24.8438V24.7754C294.039 24.7168 294.075 24.681 294.107 24.668C294.752 24.6159 295.126 24.5736 295.23 24.541C295.289 24.528 295.344 24.4922 295.396 24.4336C295.396 24.3229 295.302 24.1439 295.113 23.8965C294.924 23.6491 294.452 23.1055 293.697 22.2656C293.215 21.7318 292.903 21.4225 292.76 21.3379C292.623 21.2467 292.431 21.2012 292.184 21.2012H291.812C291.786 21.4355 291.773 21.9727 291.773 22.8125C291.773 23.5938 291.839 24.0951 291.969 24.3164C292.04 24.4401 292.21 24.5182 292.477 24.5508C292.743 24.5833 292.916 24.6322 292.994 24.6973C293.046 24.7363 293.079 24.8275 293.092 24.9707C292.701 24.9642 292.372 24.9609 292.105 24.9609C291.676 24.9609 291.207 24.9707 290.699 24.9902C290.393 25.0033 290.152 25.0098 289.977 25.0098C289.846 25.0098 289.632 25.0065 289.332 25ZM305.641 19.8438L301.725 19.873H300.982C300.683 19.873 300.377 19.8861 300.064 19.9121C300.006 20.1074 299.977 20.2409 299.977 20.3125L299.986 20.4102V20.5078L299.977 20.9863C299.977 21.3835 300.1 21.8717 300.348 22.4512C300.602 23.0241 300.96 23.4635 301.422 23.7695C301.891 24.069 302.473 24.2285 303.17 24.248C303.541 24.2285 303.837 24.1829 304.059 24.1113C304.28 24.0397 304.592 23.8737 304.996 23.6133L305.699 23.0371L305.758 23.4277C305.758 23.4733 305.755 23.5221 305.748 23.5742C305.455 23.9453 305.084 24.2708 304.635 24.5508C304.186 24.8307 303.73 25.0358 303.268 25.166C303.046 25.2246 302.682 25.2539 302.174 25.2539C301.712 25.2539 301.256 25.1595 300.807 24.9707C300.143 24.6842 299.618 24.2253 299.234 23.5938C298.857 22.9557 298.668 22.1842 298.668 21.2793C298.668 20.9928 298.72 20.625 298.824 20.1758C298.935 19.7266 299.13 19.248 299.41 18.7402C299.599 18.3952 299.83 18.112 300.104 17.8906C300.494 17.5781 300.836 17.36 301.129 17.2363C301.552 17.0605 302.044 16.9727 302.604 16.9727C303.209 16.9727 303.704 17.0833 304.088 17.3047C304.609 17.5977 304.996 17.9753 305.25 18.4375C305.51 18.8997 305.641 19.3229 305.641 19.707V19.8438ZM300.191 19.4922H300.65C300.982 19.4922 301.972 19.4401 303.619 19.3359C303.88 19.3229 304.039 19.2969 304.098 19.2578C304.215 19.1341 304.273 19.0234 304.273 18.9258C304.273 18.724 304.208 18.4961 304.078 18.2422C303.948 17.9818 303.746 17.7832 303.473 17.6465C303.206 17.5033 302.893 17.4316 302.535 17.4316C301.78 17.4316 301.174 17.7148 300.719 18.2812C300.367 18.7109 300.191 19.1146 300.191 19.4922Z" fill="white"/>
</svg>
