<svg width="601" height="39" viewBox="0 0 601 39" fill="none" xmlns="http://www.w3.org/2000/svg">
<rect x="1" y="1" width="599" height="37" rx="18.5" stroke="#D6CB89" stroke-width="2"/>
<path d="M580.443 17.5354C580.443 21.7328 577.175 25.0709 573.222 25.0709C569.268 25.0709 566 21.7328 566 17.5354C566 13.3381 569.268 10 573.222 10C577.175 10 580.443 13.3381 580.443 17.5354Z" stroke="#D6CB89" stroke-width="2"/>
<line x1="1" y1="-1" x2="6.7135" y2="-1" transform="matrix(0.693747 0.720219 -0.693747 0.720219 577.648 23.4453)" stroke="#D6CB89" stroke-width="2" stroke-linecap="round"/>
<path d="M25.7637 13.9492C25.8158 14.3789 25.8418 14.6263 25.8418 14.6914L25.8027 15.5605C25.7897 15.9316 25.7734 16.1693 25.7539 16.2734C25.6953 16.2995 25.6465 16.3125 25.6074 16.3125L25.5195 16.293C25.3112 15.3815 24.9564 14.7174 24.4551 14.3008C23.9603 13.8841 23.3548 13.6758 22.6387 13.6758C21.8965 13.6758 21.2878 13.8841 20.8125 14.3008C20.3372 14.7174 20.0996 15.2025 20.0996 15.7559C20.0996 16.179 20.2656 16.5664 20.5977 16.918C20.9297 17.2695 21.7793 17.7969 23.1465 18.5C24.1882 19.0404 24.9336 19.4831 25.3828 19.8281C25.832 20.1667 26.1706 20.5605 26.3984 21.0098C26.6263 21.459 26.7402 21.9603 26.7402 22.5137C26.7402 23.2103 26.5579 23.8646 26.1934 24.4766C25.8353 25.0885 25.3503 25.5508 24.7383 25.8633C24.1263 26.1693 23.3158 26.3223 22.3066 26.3223C21.4277 26.3223 20.5846 26.1823 19.7773 25.9023C19.3021 25.7331 19.0124 25.5964 18.9082 25.4922C18.804 25.388 18.752 25.2773 18.752 25.1602C18.752 25.0885 18.7585 24.9974 18.7715 24.8867C18.8626 24.1185 18.9115 23.487 18.918 22.9922C18.931 22.6862 18.9538 22.5072 18.9863 22.4551C19.0124 22.4095 19.0612 22.3867 19.1328 22.3867C19.1914 22.3867 19.237 22.4095 19.2695 22.4551C19.3086 22.4941 19.3346 22.5723 19.3477 22.6895C19.4193 23.4902 19.7904 24.2064 20.4609 24.8379C21.125 25.4694 21.877 25.7852 22.7168 25.7852C23.2311 25.7852 23.7031 25.6777 24.1328 25.4629C24.569 25.248 24.9076 24.9388 25.1484 24.5352C25.3958 24.125 25.5195 23.7279 25.5195 23.3438C25.5195 22.8164 25.334 22.3346 24.9629 21.8984C24.5918 21.4622 23.8464 20.9544 22.7266 20.375C21.6068 19.7891 20.8776 19.3626 20.5391 19.0957C19.9922 18.6595 19.582 18.1973 19.3086 17.709C19.1068 17.3314 19.0059 16.8919 19.0059 16.3906C19.0059 15.4857 19.3639 14.7207 20.0801 14.0957C20.7962 13.4642 21.7565 13.1484 22.9609 13.1484C23.625 13.1484 24.1979 13.2233 24.6797 13.373C25.0312 13.4902 25.3926 13.6823 25.7637 13.9492ZM35.3242 20.8438L31.4082 20.873H30.666C30.3665 20.873 30.0605 20.8861 29.748 20.9121C29.6895 21.1074 29.6602 21.2409 29.6602 21.3125L29.6699 21.4102V21.5078L29.6602 21.9863C29.6602 22.3835 29.7839 22.8717 30.0312 23.4512C30.2852 24.0241 30.6432 24.4635 31.1055 24.7695C31.5742 25.069 32.1569 25.2285 32.8535 25.248C33.2246 25.2285 33.5208 25.1829 33.7422 25.1113C33.9635 25.0397 34.276 24.8737 34.6797 24.6133L35.3828 24.0371L35.4414 24.4277C35.4414 24.4733 35.4382 24.5221 35.4316 24.5742C35.1387 24.9453 34.7676 25.2708 34.3184 25.5508C33.8691 25.8307 33.4134 26.0358 32.9512 26.166C32.7298 26.2246 32.3652 26.2539 31.8574 26.2539C31.3952 26.2539 30.9395 26.1595 30.4902 25.9707C29.8262 25.6842 29.3021 25.2253 28.918 24.5938C28.5404 23.9557 28.3516 23.1842 28.3516 22.2793C28.3516 21.9928 28.4036 21.625 28.5078 21.1758C28.6185 20.7266 28.8138 20.248 29.0938 19.7402C29.2826 19.3952 29.5137 19.112 29.7871 18.8906C30.1777 18.5781 30.5195 18.36 30.8125 18.2363C31.2357 18.0605 31.7272 17.9727 32.2871 17.9727C32.8926 17.9727 33.3874 18.0833 33.7715 18.3047C34.2923 18.5977 34.6797 18.9753 34.9336 19.4375C35.194 19.8997 35.3242 20.3229 35.3242 20.707V20.8438ZM29.875 20.4922H30.334C30.666 20.4922 31.6556 20.4401 33.3027 20.3359C33.5632 20.3229 33.7227 20.2969 33.7812 20.2578C33.8984 20.1341 33.957 20.0234 33.957 19.9258C33.957 19.724 33.8919 19.4961 33.7617 19.2422C33.6315 18.9818 33.4297 18.7832 33.1562 18.6465C32.8893 18.5033 32.5768 18.4316 32.2188 18.4316C31.4635 18.4316 30.8581 18.7148 30.4023 19.2812C30.0508 19.7109 29.875 20.1146 29.875 20.4922ZM43.8691 24.6719C43.9082 24.7565 43.9277 24.8184 43.9277 24.8574C43.9277 24.9551 43.8496 25.1276 43.6934 25.375C43.4915 25.7005 43.2669 25.9382 43.0195 26.0879C42.8633 26.1855 42.6484 26.2344 42.375 26.2344C41.9062 26.2344 41.5547 26.0911 41.3203 25.8047C41.1771 25.6354 41.0762 25.3327 41.0176 24.8965L39.9238 25.6582C39.5397 25.8796 39.2467 26.0195 39.0449 26.0781C38.7194 26.1628 38.3288 26.2051 37.873 26.2051C37.541 26.2051 37.2773 26.1074 37.082 25.9121C36.8932 25.7103 36.7988 25.4531 36.7988 25.1406C36.7988 24.6914 37.0723 24.1543 37.6191 23.5293C38.1725 22.9043 38.9212 22.3932 39.8652 21.9961C40.5293 21.7161 40.9362 21.5371 41.0859 21.459C41.099 21.2441 41.1055 21.0098 41.1055 20.7559C41.1055 19.929 40.9883 19.3691 40.7539 19.0762C40.526 18.7832 40.1973 18.6367 39.7676 18.6367C39.3184 18.6367 38.8984 18.8125 38.5078 19.1641C38.2669 19.3854 38.0846 19.8021 37.9609 20.4141C37.9219 20.5833 37.847 20.7656 37.7363 20.9609C37.4564 21.1432 37.2318 21.2344 37.0625 21.2344C36.9193 21.2344 36.7891 21.1921 36.6719 21.1074C36.6068 21.0618 36.5742 21.0098 36.5742 20.9512C36.5742 20.7819 36.7533 20.401 37.1113 19.8086C37.4759 19.2096 37.9316 18.7637 38.4785 18.4707C39.0319 18.1712 39.5137 18.0215 39.9238 18.0215C40.4837 18.0215 40.9004 18.0736 41.1738 18.1777C41.4473 18.2754 41.6882 18.4512 41.8965 18.7051C42.1048 18.959 42.2318 19.2357 42.2773 19.5352C42.3034 19.6784 42.3164 20.1895 42.3164 21.0684L42.2871 22.6211L42.2969 23.7539C42.2969 23.9036 42.2936 24.0306 42.2871 24.1348C42.2806 24.3236 42.2773 24.4635 42.2773 24.5547C42.2773 24.7695 42.3392 24.9421 42.4629 25.0723C42.5866 25.2025 42.7331 25.2676 42.9023 25.2676C43.1497 25.2676 43.3613 25.1439 43.5371 24.8965L43.6543 24.7402C43.6868 24.7207 43.7585 24.6979 43.8691 24.6719ZM40.998 24.3887C41.0436 23.5618 41.0664 22.9792 41.0664 22.6406C41.0664 22.4648 41.0566 22.2272 41.0371 21.9277C40.6009 22.084 40.1387 22.3216 39.6504 22.6406C39.1621 22.9596 38.7747 23.3275 38.4883 23.7441C38.2799 24.0436 38.1758 24.3268 38.1758 24.5938C38.1758 24.8477 38.2604 25.0592 38.4297 25.2285C38.6055 25.3978 38.8236 25.4824 39.084 25.4824C39.2858 25.4824 39.5299 25.4108 39.8164 25.2676C40.194 25.0788 40.5879 24.7858 40.998 24.3887ZM44.4551 26.0293L44.416 25.9023C44.416 25.8568 44.4453 25.7884 44.5039 25.6973L45.0801 25.5801L45.8906 25.4336C45.9557 25.401 46.0013 25.3555 46.0273 25.2969C46.0664 25.2122 46.0859 24.9616 46.0859 24.5449C46.0859 22.3314 46.0729 21.0553 46.0469 20.7168C46.0208 20.3717 45.9622 20.1536 45.8711 20.0625C45.7799 19.9714 45.5456 19.8997 45.168 19.8477C44.9466 19.8151 44.7708 19.7728 44.6406 19.7207L44.6797 19.4277C45.3633 19.1478 45.8223 18.9069 46.0566 18.7051C46.3822 18.4121 46.6589 18.028 46.8867 17.5527L47.2188 17.5625C47.2578 17.888 47.2773 18.6107 47.2773 19.7305L47.2676 19.8965C47.2676 19.9355 47.2741 19.9974 47.2871 20.082C47.5345 19.6328 47.8438 19.2194 48.2148 18.8418L48.4395 18.6172C48.5306 18.513 48.6185 18.4316 48.7031 18.373C49.1589 18.0996 49.4974 17.9629 49.7188 17.9629C50.0052 17.9629 50.2396 18.0605 50.4219 18.2559C50.6042 18.4447 50.6953 18.679 50.6953 18.959C50.6953 19.1803 50.6302 19.3529 50.5 19.4766C50.3242 19.6393 50.1224 19.7207 49.8945 19.7207C49.7904 19.7207 49.5853 19.6654 49.2793 19.5547C48.9733 19.444 48.7715 19.3887 48.6738 19.3887C48.4915 19.3887 48.3646 19.418 48.293 19.4766C48.1107 19.6198 47.8893 19.9128 47.6289 20.3555C47.4271 20.6875 47.3262 20.9935 47.3262 21.2734L47.375 22.8848L47.3945 24.8184C47.4141 25.0397 47.4401 25.1829 47.4727 25.248C47.4987 25.2936 47.5638 25.349 47.668 25.4141C48.3711 25.4727 48.7878 25.515 48.918 25.541C49.0091 25.5475 49.0775 25.554 49.123 25.5605C49.403 25.5671 49.5983 25.6061 49.709 25.6777C49.7676 25.7103 49.7969 25.7591 49.7969 25.8242C49.7969 25.8633 49.7708 25.9154 49.7188 25.9805L48.6348 25.9707L48.2246 25.9609L47.6289 25.9707H46.6328L46.0957 26L44.4551 26.0293ZM58.5371 24.2129L58.5469 24.8477C58.0391 25.388 57.5378 25.7656 57.043 25.9805C56.5482 26.1953 55.9655 26.3027 55.2949 26.3027C54.5658 26.3027 53.9082 26.1139 53.3223 25.7363C52.7363 25.3522 52.2839 24.8118 51.9648 24.1152C51.6523 23.4186 51.4961 22.735 51.4961 22.0645C51.4961 21.3288 51.6849 20.6354 52.0625 19.9844C52.4466 19.3268 52.9512 18.8385 53.5762 18.5195C54.2077 18.194 54.9987 18.0312 55.9492 18.0312C56.8607 18.0312 57.554 18.1875 58.0293 18.5C58.2962 18.6823 58.4297 18.9167 58.4297 19.2031C58.4297 19.4115 58.3613 19.584 58.2246 19.7207C58.0879 19.8574 57.9121 19.9258 57.6973 19.9258C57.3717 19.9258 57.0137 19.724 56.623 19.3203C56.3822 19.0729 56.1641 18.9036 55.9688 18.8125C55.7734 18.7148 55.5553 18.666 55.3145 18.666C54.735 18.666 54.2533 18.9036 53.8691 19.3789C53.3353 20.056 53.0684 20.9056 53.0684 21.9277C53.0684 22.9824 53.3418 23.8223 53.8887 24.4473C54.4355 25.0723 55.0736 25.3848 55.8027 25.3848C56.3105 25.3848 56.7598 25.3034 57.1504 25.1406C57.5475 24.9714 58.0098 24.6621 58.5371 24.2129ZM59.1719 25.7656C59.9336 25.6289 60.373 25.5247 60.4902 25.4531C60.5618 25.4076 60.5977 25.3034 60.5977 25.1406L60.5879 24.4961L60.5977 23.3535L60.5781 20.4434L60.5879 19.3594V18.5879L60.6172 17.6406C60.6172 16.1562 60.6009 15.2708 60.5684 14.9844C60.5423 14.6914 60.487 14.5091 60.4023 14.4375C60.2461 14.2878 59.8164 14.1315 59.1133 13.9688V13.9199C59.1133 13.8743 59.1198 13.8092 59.1328 13.7246C59.224 13.7116 59.3118 13.6953 59.3965 13.6758C59.4811 13.6562 59.5625 13.6432 59.6406 13.6367C60.4154 13.4154 60.9785 13.2005 61.3301 12.9922H61.8086C61.8216 13.1745 61.8281 13.7507 61.8281 14.7207L61.8184 15.9609L61.8281 17.5625L61.7891 19.5352C61.7891 19.6523 61.7956 19.7826 61.8086 19.9258C62.2188 19.4505 62.5182 19.1348 62.707 18.9785C63.0456 18.7051 63.4069 18.4902 63.791 18.334C64.1751 18.1712 64.5788 18.0898 65.002 18.0898C65.8027 18.0898 66.457 18.4284 66.9648 19.1055C67.2578 19.5026 67.4043 20.0658 67.4043 20.7949L67.375 21.791L67.3848 22.3477L67.3457 23.3145C67.3197 24.1152 67.3066 24.5905 67.3066 24.7402C67.3066 24.9095 67.3132 25.1374 67.3262 25.4238L67.8828 25.5508C68.2539 25.6289 68.5404 25.7005 68.7422 25.7656L68.7324 26.0684L66.6523 26.0098C66.5352 26.0098 66.2161 26.0228 65.6953 26.0488C65.3763 26.0618 65.1908 26.0684 65.1387 26.0684H64.9238C64.8913 26.0098 64.875 25.9609 64.875 25.9219V25.834C64.9661 25.7168 65.1354 25.6387 65.3828 25.5996L65.9688 25.4629C66.0469 25.3978 66.0924 25.3294 66.1055 25.2578C66.1315 25.0885 66.1608 24.2487 66.1934 22.7383L66.2129 22.0156C66.2389 21.2539 66.1803 20.6224 66.0371 20.1211C65.946 19.776 65.7376 19.5026 65.4121 19.3008C65.0931 19.0924 64.722 18.9883 64.2988 18.9883C63.9473 18.9883 63.6152 19.0632 63.3027 19.2129C63.0879 19.3236 62.8307 19.5156 62.5312 19.7891C62.2318 20.0625 62.0234 20.2969 61.9062 20.4922C61.8281 20.6224 61.7891 20.8372 61.7891 21.1367L61.7988 21.8203L61.7793 22.5332C61.7793 22.5918 61.7891 22.9987 61.8086 23.7539L61.7988 24.3789L61.8184 25.0625C61.8249 25.1602 61.8346 25.2318 61.8477 25.2773L63.2246 25.6094C63.2962 25.6289 63.4036 25.668 63.5469 25.7266L63.5762 25.834C63.5762 25.8665 63.5599 25.9186 63.5273 25.9902C63.3385 25.9967 63.1953 26 63.0977 26L62.3359 25.9902L60.6562 26.0098L59.3965 26.0488C59.3314 26.0423 59.2337 26.0358 59.1035 26.0293L59.0938 25.9609C59.0938 25.9089 59.1198 25.8438 59.1719 25.7656ZM74.3477 13.7246V13.6758C74.3477 13.6107 74.3737 13.5195 74.4258 13.4023C75.1354 13.2786 75.8906 13.0898 76.6914 12.8359C76.737 12.8294 76.8086 12.8262 76.9062 12.8262C76.9388 12.9303 76.9551 12.9987 76.9551 13.0312V15.9414L76.9453 16.8691L76.9551 17.9043L76.9355 18.7441C76.9355 18.7767 76.9421 18.8874 76.9551 19.0762L77.7559 18.7734C77.8405 18.7474 78.1204 18.6628 78.5957 18.5195C79.2012 18.4219 79.5527 18.373 79.6504 18.373C80.3014 18.373 80.8874 18.4772 81.4082 18.6855C81.7272 18.8158 82.043 19.0339 82.3555 19.3398C82.668 19.6393 82.8991 19.9583 83.0488 20.2969C83.3092 20.9154 83.4395 21.4492 83.4395 21.8984C83.4395 22.6081 83.3939 23.0996 83.3027 23.373C83.0814 24.0241 82.8112 24.5384 82.4922 24.916C82.1732 25.2936 81.7272 25.6159 81.1543 25.8828C80.5814 26.1497 79.9727 26.2832 79.3281 26.2832C78.7357 26.2832 78.1758 26.1725 77.6484 25.9512C77.1211 25.7298 76.8249 25.6191 76.7598 25.6191C76.5579 25.6191 76.3008 25.8861 75.9883 26.4199L75.7051 26.4102C75.679 25.974 75.666 25.4368 75.666 24.7988L75.6855 23.3438L75.6758 22.6016L75.6953 20.4727L75.6758 20.0625L75.7148 19.0566V18.1973L75.7246 17.8457C75.7246 17.7741 75.7214 17.4909 75.7148 16.9961V16.4102C75.7344 15.2773 75.6855 14.623 75.5684 14.4473C75.3796 14.1673 74.9727 13.9264 74.3477 13.7246ZM78.9863 25.7461C79.9759 25.7461 80.7279 25.4694 81.2422 24.916C81.763 24.3561 82.0234 23.526 82.0234 22.4258C82.0234 21.4167 81.7305 20.5996 81.1445 19.9746C80.5586 19.3496 79.8359 19.0371 78.9766 19.0371C78.3516 19.0371 77.8275 19.138 77.4043 19.3398C77.1504 19.4635 77.0072 19.5775 76.9746 19.6816C76.9486 19.7858 76.9355 20.4824 76.9355 21.7715C76.9355 23.3014 76.9681 24.1966 77.0332 24.457C77.1439 24.8607 77.3457 25.1504 77.6387 25.3262C78.1009 25.6061 78.5501 25.7461 78.9863 25.7461ZM84.0742 18.3047C84.2174 18.2917 84.3379 18.2852 84.4355 18.2852H84.9043L85.5391 18.2656L86.3691 18.2949L87.043 18.2754C87.401 18.2754 87.7233 18.2982 88.0098 18.3438C88.0358 18.4089 88.0488 18.4609 88.0488 18.5L88.0391 18.5781C87.9023 18.6432 87.6908 18.6888 87.4043 18.7148C87.0007 18.7474 86.7109 18.819 86.5352 18.9297L86.5156 19.0371C86.5156 19.1022 86.5417 19.1999 86.5938 19.3301C86.6263 19.4082 86.6686 19.5254 86.7207 19.6816C86.8639 20.1634 87.1732 21.0944 87.6484 22.4746C87.9935 23.4707 88.3125 24.3268 88.6055 25.043C88.7878 24.6523 88.9961 24.1576 89.2305 23.5586L90.0605 21.2441C90.2428 20.7363 90.3828 20.2285 90.4805 19.7207C90.5195 19.5189 90.5391 19.3594 90.5391 19.2422C90.5391 19.1445 90.4967 19.0534 90.4121 18.9688C90.3275 18.8841 90.1582 18.8125 89.9043 18.7539C89.4421 18.6367 89.1914 18.5651 89.1523 18.5391C89.1133 18.5065 89.0905 18.4414 89.084 18.3438C89.123 18.3112 89.1686 18.2852 89.2207 18.2656H89.8262L90.4805 18.2754L91.457 18.2656L92.082 18.2754L92.2383 18.2656C92.2839 18.2656 92.3587 18.2721 92.4629 18.2852C92.528 18.3177 92.5605 18.3698 92.5605 18.4414C92.5605 18.5065 92.5312 18.5651 92.4727 18.6172L92.2773 18.6465C91.8997 18.6986 91.61 18.7962 91.4082 18.9395C91.2975 19.0176 91.2031 19.1803 91.125 19.4277C91.099 19.5189 91.0566 19.6361 90.998 19.7793C90.9655 19.8574 90.9167 19.9876 90.8516 20.1699C90.793 20.3522 90.7148 20.5671 90.6172 20.8145L90.5 21.0879L90.4902 21.1367L88.8301 25.5117L87.6191 28.8027C87.541 28.9655 87.4499 29.1673 87.3457 29.4082C87.0983 29.8704 86.9518 30.1243 86.9062 30.1699C86.7109 30.4108 86.5417 30.5801 86.3984 30.6777L85.9004 30.8926C85.8027 30.9186 85.6986 30.9316 85.5879 30.9316C85.2949 30.9316 85.0801 30.8665 84.9434 30.7363C84.8066 30.6126 84.7383 30.4401 84.7383 30.2188C84.7383 30.0104 84.8392 29.8216 85.041 29.6523C85.1061 29.6328 85.1712 29.6068 85.2363 29.5742L85.3633 29.5449C85.9427 29.6491 86.304 29.7012 86.4473 29.7012C86.584 29.6296 86.6849 29.5449 86.75 29.4473C87.069 28.972 87.3424 28.4414 87.5703 27.8555C87.7982 27.2695 87.9121 26.8757 87.9121 26.6738C87.9121 26.4525 87.8275 26.1302 87.6582 25.707L86.5742 22.8359C86.4245 22.4648 85.9785 21.2539 85.2363 19.2031C85.1908 19.0729 85.1322 18.9753 85.0605 18.9102L84.3965 18.666L84.1914 18.627C84.0807 18.5814 84.0254 18.5163 84.0254 18.4316L84.0742 18.3047ZM105.236 24.6719C105.275 24.7565 105.295 24.8184 105.295 24.8574C105.295 24.9551 105.217 25.1276 105.061 25.375C104.859 25.7005 104.634 25.9382 104.387 26.0879C104.23 26.1855 104.016 26.2344 103.742 26.2344C103.273 26.2344 102.922 26.0911 102.688 25.8047C102.544 25.6354 102.443 25.3327 102.385 24.8965L101.291 25.6582C100.907 25.8796 100.614 26.0195 100.412 26.0781C100.087 26.1628 99.696 26.2051 99.2402 26.2051C98.9082 26.2051 98.6445 26.1074 98.4492 25.9121C98.2604 25.7103 98.166 25.4531 98.166 25.1406C98.166 24.6914 98.4395 24.1543 98.9863 23.5293C99.5397 22.9043 100.288 22.3932 101.232 21.9961C101.896 21.7161 102.303 21.5371 102.453 21.459C102.466 21.2441 102.473 21.0098 102.473 20.7559C102.473 19.929 102.355 19.3691 102.121 19.0762C101.893 18.7832 101.564 18.6367 101.135 18.6367C100.686 18.6367 100.266 18.8125 99.875 19.1641C99.6341 19.3854 99.4518 19.8021 99.3281 20.4141C99.2891 20.5833 99.2142 20.7656 99.1035 20.9609C98.8236 21.1432 98.599 21.2344 98.4297 21.2344C98.2865 21.2344 98.1562 21.1921 98.0391 21.1074C97.974 21.0618 97.9414 21.0098 97.9414 20.9512C97.9414 20.7819 98.1204 20.401 98.4785 19.8086C98.8431 19.2096 99.2988 18.7637 99.8457 18.4707C100.399 18.1712 100.881 18.0215 101.291 18.0215C101.851 18.0215 102.268 18.0736 102.541 18.1777C102.814 18.2754 103.055 18.4512 103.264 18.7051C103.472 18.959 103.599 19.2357 103.645 19.5352C103.671 19.6784 103.684 20.1895 103.684 21.0684L103.654 22.6211L103.664 23.7539C103.664 23.9036 103.661 24.0306 103.654 24.1348C103.648 24.3236 103.645 24.4635 103.645 24.5547C103.645 24.7695 103.706 24.9421 103.83 25.0723C103.954 25.2025 104.1 25.2676 104.27 25.2676C104.517 25.2676 104.729 25.1439 104.904 24.8965L105.021 24.7402C105.054 24.7207 105.126 24.6979 105.236 24.6719ZM102.365 24.3887C102.411 23.5618 102.434 22.9792 102.434 22.6406C102.434 22.4648 102.424 22.2272 102.404 21.9277C101.968 22.084 101.506 22.3216 101.018 22.6406C100.529 22.9596 100.142 23.3275 99.8555 23.7441C99.6471 24.0436 99.543 24.3268 99.543 24.5938C99.543 24.8477 99.6276 25.0592 99.7969 25.2285C99.9727 25.3978 100.191 25.4824 100.451 25.4824C100.653 25.4824 100.897 25.4108 101.184 25.2676C101.561 25.0788 101.955 24.7858 102.365 24.3887ZM105.793 25.6875C105.956 25.6419 106.145 25.6029 106.359 25.5703C106.77 25.5117 107.014 25.4434 107.092 25.3652C107.176 25.2871 107.219 25.1081 107.219 24.8281L107.238 24.4766C107.245 24.3464 107.248 24.1803 107.248 23.9785L107.229 20.9805C107.229 20.5768 107.176 20.3164 107.072 20.1992C106.896 20.0169 106.571 19.89 106.096 19.8184V19.4668C106.571 19.3366 106.936 19.1673 107.189 18.959C107.561 18.666 107.873 18.2689 108.127 17.7676L108.459 17.7773C108.479 18.0833 108.488 18.3014 108.488 18.4316V19.0762L108.498 19.252C108.576 19.1999 108.667 19.1348 108.771 19.0566C109.162 18.7637 109.562 18.526 109.973 18.3438C110.383 18.1549 110.747 18.0247 111.066 17.9531C111.268 17.901 111.496 17.875 111.75 17.875C112.284 17.875 112.743 18.0182 113.127 18.3047C113.511 18.5911 113.758 18.9297 113.869 19.3203C113.986 19.7044 114.045 20.4727 114.045 21.625V23.0996C114.045 23.1387 114.038 23.2689 114.025 23.4902C114.019 23.7116 114.016 23.9655 114.016 24.252C114.016 24.7077 114.035 24.9974 114.074 25.1211C114.107 25.2057 114.191 25.2904 114.328 25.375C114.953 25.4596 115.318 25.5605 115.422 25.6777V25.7559C115.422 25.821 115.402 25.9023 115.363 26H115.178L113.889 25.9902L112.619 26.0098C112.15 26.0228 111.717 26.0195 111.32 26L111.262 25.7949C111.262 25.7559 111.285 25.7038 111.33 25.6387C111.506 25.5605 111.753 25.5085 112.072 25.4824C112.261 25.4694 112.391 25.4499 112.463 25.4238C112.535 25.3978 112.622 25.3457 112.727 25.2676C112.805 25.1113 112.844 24.9811 112.844 24.877C112.844 24.8314 112.837 24.7402 112.824 24.6035C112.805 24.304 112.792 23.5586 112.785 22.3672V21.8594L112.805 21.0781C112.805 20.2383 112.635 19.6589 112.297 19.3398C111.958 19.0208 111.506 18.8613 110.939 18.8613C110.503 18.8613 110.077 18.959 109.66 19.1543C109.243 19.3431 108.84 19.6296 108.449 20.0137C108.436 20.3262 108.43 20.5931 108.43 20.8145L108.459 22.9727C108.459 24.099 108.475 24.7891 108.508 25.043C108.521 25.1471 108.544 25.2188 108.576 25.2578C108.628 25.3099 108.732 25.3522 108.889 25.3848C109.045 25.4173 109.224 25.4629 109.426 25.5215C109.634 25.5801 109.771 25.6159 109.836 25.6289C109.966 25.6615 110.054 25.7266 110.1 25.8242L110.09 26.0195H109.064L106.955 25.9902C106.467 26.0033 106.158 26.0098 106.027 26.0098H105.783L105.764 25.8828C105.764 25.8372 105.773 25.7721 105.793 25.6875ZM115.754 18.3047C115.897 18.2917 116.018 18.2852 116.115 18.2852H116.584L117.219 18.2656L118.049 18.2949L118.723 18.2754C119.081 18.2754 119.403 18.2982 119.689 18.3438C119.715 18.4089 119.729 18.4609 119.729 18.5L119.719 18.5781C119.582 18.6432 119.37 18.6888 119.084 18.7148C118.68 18.7474 118.391 18.819 118.215 18.9297L118.195 19.0371C118.195 19.1022 118.221 19.1999 118.273 19.3301C118.306 19.4082 118.348 19.5254 118.4 19.6816C118.544 20.1634 118.853 21.0944 119.328 22.4746C119.673 23.4707 119.992 24.3268 120.285 25.043C120.467 24.6523 120.676 24.1576 120.91 23.5586L121.74 21.2441C121.923 20.7363 122.062 20.2285 122.16 19.7207C122.199 19.5189 122.219 19.3594 122.219 19.2422C122.219 19.1445 122.176 19.0534 122.092 18.9688C122.007 18.8841 121.838 18.8125 121.584 18.7539C121.122 18.6367 120.871 18.5651 120.832 18.5391C120.793 18.5065 120.77 18.4414 120.764 18.3438C120.803 18.3112 120.848 18.2852 120.9 18.2656H121.506L122.16 18.2754L123.137 18.2656L123.762 18.2754L123.918 18.2656C123.964 18.2656 124.038 18.2721 124.143 18.2852C124.208 18.3177 124.24 18.3698 124.24 18.4414C124.24 18.5065 124.211 18.5651 124.152 18.6172L123.957 18.6465C123.579 18.6986 123.29 18.7962 123.088 18.9395C122.977 19.0176 122.883 19.1803 122.805 19.4277C122.779 19.5189 122.736 19.6361 122.678 19.7793C122.645 19.8574 122.596 19.9876 122.531 20.1699C122.473 20.3522 122.395 20.5671 122.297 20.8145L122.18 21.0879L122.17 21.1367L120.51 25.5117L119.299 28.8027C119.221 28.9655 119.13 29.1673 119.025 29.4082C118.778 29.8704 118.632 30.1243 118.586 30.1699C118.391 30.4108 118.221 30.5801 118.078 30.6777L117.58 30.8926C117.482 30.9186 117.378 30.9316 117.268 30.9316C116.975 30.9316 116.76 30.8665 116.623 30.7363C116.486 30.6126 116.418 30.4401 116.418 30.2188C116.418 30.0104 116.519 29.8216 116.721 29.6523C116.786 29.6328 116.851 29.6068 116.916 29.5742L117.043 29.5449C117.622 29.6491 117.984 29.7012 118.127 29.7012C118.264 29.6296 118.365 29.5449 118.43 29.4473C118.749 28.972 119.022 28.4414 119.25 27.8555C119.478 27.2695 119.592 26.8757 119.592 26.6738C119.592 26.4525 119.507 26.1302 119.338 25.707L118.254 22.8359C118.104 22.4648 117.658 21.2539 116.916 19.2031C116.87 19.0729 116.812 18.9753 116.74 18.9102L116.076 18.666L115.871 18.627C115.76 18.5814 115.705 18.5163 115.705 18.4316L115.754 18.3047ZM129.504 26L129.484 25.7168C129.536 25.6777 129.585 25.6549 129.631 25.6484C129.676 25.6354 129.839 25.6191 130.119 25.5996C130.406 25.5801 130.585 25.5182 130.656 25.4141C130.728 25.3034 130.764 24.8574 130.764 24.0762L130.783 20.2188L130.764 19.5352C130.764 19.4766 130.77 19.2585 130.783 18.8809C130.796 18.7051 130.803 18.4935 130.803 18.2461L130.764 16.5469L130.773 15.0625C130.773 14.7044 130.721 14.4766 130.617 14.3789C130.52 14.2747 130.165 14.1803 129.553 14.0957V13.9785C129.553 13.9395 129.556 13.8841 129.562 13.8125C129.934 13.7344 130.262 13.6367 130.549 13.5195C130.699 13.4544 131.079 13.2526 131.691 12.9141H131.994C131.988 13.0638 131.984 13.1549 131.984 13.1875V14.0371L131.975 14.457L132.004 15.2285L131.994 16.3906L132.004 18.3242L131.975 20.7266V21.4688C131.975 21.5599 131.978 21.6868 131.984 21.8496L132.092 21.8594C132.313 21.8594 132.538 21.778 132.766 21.6152C133.788 20.8861 134.429 20.3913 134.689 20.1309C134.95 19.8639 135.08 19.6719 135.08 19.5547C135.08 19.4831 135.038 19.3919 134.953 19.2812C134.758 19.1771 134.54 19.1055 134.299 19.0664C134.227 19.0534 134.149 19.0371 134.064 19.0176C133.947 18.985 133.85 18.9622 133.771 18.9492L133.752 18.8516C133.752 18.806 133.768 18.7409 133.801 18.6562C134.829 18.6172 135.725 18.5977 136.486 18.5977C136.916 18.5977 137.375 18.6074 137.863 18.627V18.7539C137.863 18.7995 137.847 18.8581 137.814 18.9297C137.717 18.9492 137.564 18.9785 137.355 19.0176C136.952 19.0827 136.646 19.1738 136.438 19.291C135.936 19.5579 135.419 19.9323 134.885 20.4141C134.566 20.7005 134.289 20.9414 134.055 21.1367L133.703 21.4395C133.729 21.485 133.771 21.5404 133.83 21.6055C133.856 21.6315 133.908 21.6901 133.986 21.7812C134.064 21.8724 134.204 22.0254 134.406 22.2402C135.109 22.9824 135.63 23.5553 135.969 23.959C136.079 24.0892 136.203 24.2324 136.34 24.3887C136.848 24.9551 137.144 25.2708 137.229 25.3359C137.411 25.4531 137.681 25.5443 138.039 25.6094C138.208 25.6419 138.355 25.6712 138.479 25.6973C138.505 25.7754 138.518 25.8372 138.518 25.8828L138.508 25.9805C138.046 25.9414 137.714 25.9219 137.512 25.9219H137.336L134.621 26C134.517 26.013 134.445 26.0195 134.406 26.0195C134.341 26.0195 134.273 26.0065 134.201 25.9805C134.182 25.9284 134.172 25.8828 134.172 25.8438V25.7754C134.211 25.7168 134.247 25.681 134.279 25.668C134.924 25.6159 135.298 25.5736 135.402 25.541C135.461 25.528 135.516 25.4922 135.568 25.4336C135.568 25.3229 135.474 25.1439 135.285 24.8965C135.096 24.6491 134.624 24.1055 133.869 23.2656C133.387 22.7318 133.075 22.4225 132.932 22.3379C132.795 22.2467 132.603 22.2012 132.355 22.2012H131.984C131.958 22.4355 131.945 22.9727 131.945 23.8125C131.945 24.5938 132.01 25.0951 132.141 25.3164C132.212 25.4401 132.382 25.5182 132.648 25.5508C132.915 25.5833 133.088 25.6322 133.166 25.6973C133.218 25.7363 133.251 25.8275 133.264 25.9707C132.873 25.9642 132.544 25.9609 132.277 25.9609C131.848 25.9609 131.379 25.9707 130.871 25.9902C130.565 26.0033 130.324 26.0098 130.148 26.0098C130.018 26.0098 129.803 26.0065 129.504 26ZM145.812 20.8438L141.896 20.873H141.154C140.855 20.873 140.549 20.8861 140.236 20.9121C140.178 21.1074 140.148 21.2409 140.148 21.3125L140.158 21.4102V21.5078L140.148 21.9863C140.148 22.3835 140.272 22.8717 140.52 23.4512C140.773 24.0241 141.132 24.4635 141.594 24.7695C142.062 25.069 142.645 25.2285 143.342 25.248C143.713 25.2285 144.009 25.1829 144.23 25.1113C144.452 25.0397 144.764 24.8737 145.168 24.6133L145.871 24.0371L145.93 24.4277C145.93 24.4733 145.926 24.5221 145.92 24.5742C145.627 24.9453 145.256 25.2708 144.807 25.5508C144.357 25.8307 143.902 26.0358 143.439 26.166C143.218 26.2246 142.854 26.2539 142.346 26.2539C141.883 26.2539 141.428 26.1595 140.979 25.9707C140.314 25.6842 139.79 25.2253 139.406 24.5938C139.029 23.9557 138.84 23.1842 138.84 22.2793C138.84 21.9928 138.892 21.625 138.996 21.1758C139.107 20.7266 139.302 20.248 139.582 19.7402C139.771 19.3952 140.002 19.112 140.275 18.8906C140.666 18.5781 141.008 18.36 141.301 18.2363C141.724 18.0605 142.215 17.9727 142.775 17.9727C143.381 17.9727 143.876 18.0833 144.26 18.3047C144.781 18.5977 145.168 18.9753 145.422 19.4375C145.682 19.8997 145.812 20.3229 145.812 20.707V20.8438ZM140.363 20.4922H140.822C141.154 20.4922 142.144 20.4401 143.791 20.3359C144.051 20.3229 144.211 20.2969 144.27 20.2578C144.387 20.1341 144.445 20.0234 144.445 19.9258C144.445 19.724 144.38 19.4961 144.25 19.2422C144.12 18.9818 143.918 18.7832 143.645 18.6465C143.378 18.5033 143.065 18.4316 142.707 18.4316C141.952 18.4316 141.346 18.7148 140.891 19.2812C140.539 19.7109 140.363 20.1146 140.363 20.4922ZM146.535 18.3047C146.678 18.2917 146.799 18.2852 146.896 18.2852H147.365L148 18.2656L148.83 18.2949L149.504 18.2754C149.862 18.2754 150.184 18.2982 150.471 18.3438C150.497 18.4089 150.51 18.4609 150.51 18.5L150.5 18.5781C150.363 18.6432 150.152 18.6888 149.865 18.7148C149.462 18.7474 149.172 18.819 148.996 18.9297L148.977 19.0371C148.977 19.1022 149.003 19.1999 149.055 19.3301C149.087 19.4082 149.13 19.5254 149.182 19.6816C149.325 20.1634 149.634 21.0944 150.109 22.4746C150.454 23.4707 150.773 24.3268 151.066 25.043C151.249 24.6523 151.457 24.1576 151.691 23.5586L152.521 21.2441C152.704 20.7363 152.844 20.2285 152.941 19.7207C152.98 19.5189 153 19.3594 153 19.2422C153 19.1445 152.958 19.0534 152.873 18.9688C152.788 18.8841 152.619 18.8125 152.365 18.7539C151.903 18.6367 151.652 18.5651 151.613 18.5391C151.574 18.5065 151.551 18.4414 151.545 18.3438C151.584 18.3112 151.63 18.2852 151.682 18.2656H152.287L152.941 18.2754L153.918 18.2656L154.543 18.2754L154.699 18.2656C154.745 18.2656 154.82 18.2721 154.924 18.2852C154.989 18.3177 155.021 18.3698 155.021 18.4414C155.021 18.5065 154.992 18.5651 154.934 18.6172L154.738 18.6465C154.361 18.6986 154.071 18.7962 153.869 18.9395C153.758 19.0176 153.664 19.1803 153.586 19.4277C153.56 19.5189 153.518 19.6361 153.459 19.7793C153.426 19.8574 153.378 19.9876 153.312 20.1699C153.254 20.3522 153.176 20.5671 153.078 20.8145L152.961 21.0879L152.951 21.1367L151.291 25.5117L150.08 28.8027C150.002 28.9655 149.911 29.1673 149.807 29.4082C149.559 29.8704 149.413 30.1243 149.367 30.1699C149.172 30.4108 149.003 30.5801 148.859 30.6777L148.361 30.8926C148.264 30.9186 148.16 30.9316 148.049 30.9316C147.756 30.9316 147.541 30.8665 147.404 30.7363C147.268 30.6126 147.199 30.4401 147.199 30.2188C147.199 30.0104 147.3 29.8216 147.502 29.6523C147.567 29.6328 147.632 29.6068 147.697 29.5742L147.824 29.5449C148.404 29.6491 148.765 29.7012 148.908 29.7012C149.045 29.6296 149.146 29.5449 149.211 29.4473C149.53 28.972 149.803 28.4414 150.031 27.8555C150.259 27.2695 150.373 26.8757 150.373 26.6738C150.373 26.4525 150.288 26.1302 150.119 25.707L149.035 22.8359C148.885 22.4648 148.439 21.2539 147.697 19.2031C147.652 19.0729 147.593 18.9753 147.521 18.9102L146.857 18.666L146.652 18.627C146.542 18.5814 146.486 18.5163 146.486 18.4316L146.535 18.3047ZM154.553 18.3047L158.303 18.3145C158.374 18.3145 158.423 18.3275 158.449 18.3535C158.475 18.3796 158.488 18.4186 158.488 18.4707C158.488 18.5944 158.439 18.6855 158.342 18.7441C157.886 18.7767 157.603 18.832 157.492 18.9102C157.382 18.9883 157.326 19.0957 157.326 19.2324C157.326 19.2975 157.333 19.3594 157.346 19.418C157.365 19.4961 157.46 19.7272 157.629 20.1113C157.85 20.6257 158.244 21.459 158.811 22.6113L159.973 24.9746C160.637 23.8158 161.174 22.7383 161.584 21.7422L160.988 20.1797C160.923 20.0365 160.839 19.8216 160.734 19.5352C160.637 19.2487 160.559 19.0827 160.5 19.0371C160.448 18.985 160.249 18.9102 159.904 18.8125C159.559 18.7148 159.354 18.64 159.289 18.5879L159.279 18.5195C159.279 18.4805 159.299 18.4251 159.338 18.3535C159.494 18.3145 159.618 18.2949 159.709 18.2949L160.266 18.3047H161.486L161.857 18.2949L163.059 18.3145C163.156 18.3145 163.238 18.3112 163.303 18.3047H163.469C163.508 18.3047 163.563 18.3079 163.635 18.3145L163.615 18.627C163.518 18.6855 163.355 18.7279 163.127 18.7539C162.697 18.7995 162.368 18.8809 162.141 18.998C162.069 19.0762 162.033 19.1445 162.033 19.2031C162.033 19.3464 162.072 19.5254 162.15 19.7402C162.176 19.8053 162.245 20.0072 162.355 20.3457L163.4 23.0996C163.706 23.9199 163.941 24.4928 164.104 24.8184C164.377 24.3171 164.761 23.4154 165.256 22.1133C165.432 21.6576 165.666 21.1139 165.959 20.4824C166.148 20.0853 166.242 19.7435 166.242 19.457C166.242 19.3073 166.187 19.1803 166.076 19.0762C165.965 18.972 165.708 18.8743 165.305 18.7832C165.064 18.7311 164.885 18.6823 164.768 18.6367C164.735 18.5846 164.719 18.5423 164.719 18.5098C164.719 18.4512 164.755 18.3861 164.826 18.3145H164.973L165.764 18.3047C165.796 18.3047 165.946 18.3112 166.213 18.3242C166.48 18.3307 166.74 18.334 166.994 18.334C167.189 18.334 167.414 18.3275 167.668 18.3145H168.156C168.195 18.3275 168.221 18.3438 168.234 18.3633C168.254 18.3828 168.264 18.4154 168.264 18.4609C168.264 18.5326 168.254 18.6107 168.234 18.6953C167.915 18.7344 167.665 18.8092 167.482 18.9199C167.3 19.0241 167.053 19.3171 166.74 19.7988L164.992 23.998C164.829 24.3887 164.546 24.9876 164.143 25.7949C164.058 25.9642 163.993 26.1009 163.947 26.2051C163.908 26.3092 163.869 26.3776 163.83 26.4102C163.791 26.4427 163.739 26.459 163.674 26.459C163.628 26.459 163.566 26.446 163.488 26.4199C163.306 26.0618 162.902 25.0755 162.277 23.4609C162.108 23.0247 161.952 22.6536 161.809 22.3477C160.741 24.5677 160.041 25.9316 159.709 26.4395C159.618 26.4525 159.549 26.459 159.504 26.459C159.458 26.459 159.393 26.4525 159.309 26.4395L157.463 22.582L155.773 19.2812C155.656 19.0794 155.565 18.9557 155.5 18.9102C155.389 18.8385 155.194 18.7799 154.914 18.7344C154.758 18.7083 154.637 18.6888 154.553 18.6758C154.546 18.5781 154.543 18.5033 154.543 18.4512C154.543 18.4186 154.546 18.3698 154.553 18.3047ZM168.303 22.0742C168.303 21.6315 168.394 21.1595 168.576 20.6582C168.765 20.1504 169.048 19.6979 169.426 19.3008C169.803 18.8971 170.204 18.5977 170.627 18.4023C171.219 18.1289 171.942 17.9922 172.795 17.9922C174.012 17.9922 175.028 18.4089 175.842 19.2422C176.662 20.0755 177.072 21.0781 177.072 22.25C177.072 23.2917 176.643 24.2227 175.783 25.043C174.93 25.8568 173.85 26.2637 172.541 26.2637C171.734 26.2637 170.972 26.0521 170.256 25.6289C169.722 25.3099 169.263 24.8379 168.879 24.2129C168.495 23.5879 168.303 22.875 168.303 22.0742ZM172.619 25.8828C173.114 25.8828 173.589 25.7493 174.045 25.4824C174.507 25.2155 174.875 24.7891 175.148 24.2031C175.422 23.6107 175.559 22.9271 175.559 22.1523C175.559 21.6445 175.451 21.0553 175.236 20.3848C175.028 19.7142 174.702 19.2129 174.26 18.8809C173.824 18.5423 173.309 18.373 172.717 18.373C172.287 18.373 171.848 18.474 171.398 18.6758C170.956 18.8776 170.578 19.265 170.266 19.8379C169.96 20.4108 169.807 21.2246 169.807 22.2793C169.807 23.4642 170.074 24.3626 170.607 24.9746C171.148 25.5801 171.818 25.8828 172.619 25.8828ZM178.205 26.0293L178.166 25.9023C178.166 25.8568 178.195 25.7884 178.254 25.6973L178.83 25.5801L179.641 25.4336C179.706 25.401 179.751 25.3555 179.777 25.2969C179.816 25.2122 179.836 24.9616 179.836 24.5449C179.836 22.3314 179.823 21.0553 179.797 20.7168C179.771 20.3717 179.712 20.1536 179.621 20.0625C179.53 19.9714 179.296 19.8997 178.918 19.8477C178.697 19.8151 178.521 19.7728 178.391 19.7207L178.43 19.4277C179.113 19.1478 179.572 18.9069 179.807 18.7051C180.132 18.4121 180.409 18.028 180.637 17.5527L180.969 17.5625C181.008 17.888 181.027 18.6107 181.027 19.7305L181.018 19.8965C181.018 19.9355 181.024 19.9974 181.037 20.082C181.285 19.6328 181.594 19.2194 181.965 18.8418L182.189 18.6172C182.281 18.513 182.368 18.4316 182.453 18.373C182.909 18.0996 183.247 17.9629 183.469 17.9629C183.755 17.9629 183.99 18.0605 184.172 18.2559C184.354 18.4447 184.445 18.679 184.445 18.959C184.445 19.1803 184.38 19.3529 184.25 19.4766C184.074 19.6393 183.872 19.7207 183.645 19.7207C183.54 19.7207 183.335 19.6654 183.029 19.5547C182.723 19.444 182.521 19.3887 182.424 19.3887C182.242 19.3887 182.115 19.418 182.043 19.4766C181.861 19.6198 181.639 19.9128 181.379 20.3555C181.177 20.6875 181.076 20.9935 181.076 21.2734L181.125 22.8848L181.145 24.8184C181.164 25.0397 181.19 25.1829 181.223 25.248C181.249 25.2936 181.314 25.349 181.418 25.4141C182.121 25.4727 182.538 25.515 182.668 25.541C182.759 25.5475 182.827 25.554 182.873 25.5605C183.153 25.5671 183.348 25.6061 183.459 25.6777C183.518 25.7103 183.547 25.7591 183.547 25.8242C183.547 25.8633 183.521 25.9154 183.469 25.9805L182.385 25.9707L181.975 25.9609L181.379 25.9707H180.383L179.846 26L178.205 26.0293ZM191.613 18.9102L191.623 18.627L191.613 17.4844L191.623 15.3262C191.623 14.7272 191.558 14.3464 191.428 14.1836C191.298 14.0208 190.917 13.8548 190.285 13.6855C190.24 13.6725 190.168 13.653 190.07 13.627V13.5195C190.07 13.4544 190.077 13.3828 190.09 13.3047C190.975 13.2135 191.737 13.0605 192.375 12.8457L192.873 12.8359C192.899 13.2786 192.912 13.7734 192.912 14.3203L192.873 18.0801L192.941 22.3184L192.912 24.5742C192.912 25.0365 192.945 25.2969 193.01 25.3555C193.14 25.4857 193.426 25.554 193.869 25.5605C193.96 25.5605 194.084 25.5671 194.24 25.5801V25.7559C194.24 25.8014 194.237 25.8503 194.23 25.9023C194.029 25.9479 193.82 25.9902 193.605 26.0293L192.189 26.3027C191.981 26.3418 191.815 26.3613 191.691 26.3613V25.4238C191.581 25.4564 191.408 25.5215 191.174 25.6191C190.158 26.0488 189.224 26.2637 188.371 26.2637C187.857 26.2637 187.333 26.0977 186.799 25.7656C186.265 25.4271 185.855 24.9583 185.568 24.3594C185.282 23.7604 185.139 23.1484 185.139 22.5234C185.139 21.9635 185.233 21.4297 185.422 20.9219C185.611 20.4076 185.858 19.9811 186.164 19.6426C186.359 19.4212 186.636 19.2031 186.994 18.9883C187.352 18.7669 187.648 18.627 187.883 18.5684C188.462 18.4186 188.85 18.3438 189.045 18.3438C189.924 18.3438 190.646 18.474 191.213 18.7344C191.389 18.819 191.522 18.8776 191.613 18.9102ZM191.623 24.9453C191.649 24.5091 191.662 23.6107 191.662 22.25C191.662 21.0977 191.607 20.3717 191.496 20.0723C191.392 19.7663 191.125 19.4798 190.695 19.2129C190.266 18.9395 189.784 18.8027 189.25 18.8027C188.501 18.8027 187.867 19.0924 187.346 19.6719C186.825 20.2513 186.564 21.1074 186.564 22.2402C186.564 23.2363 186.844 24.0306 187.404 24.623C187.971 25.2155 188.674 25.5117 189.514 25.5117C189.995 25.5117 190.435 25.4466 190.832 25.3164C191.229 25.1862 191.493 25.0625 191.623 24.9453Z" fill="white"/>
</svg>
